<mxfile host="app.diagrams.net" modified="2023-11-28T16:12:17.158Z" agent="Mozilla/5.0 (Windows NT 10.0; Win64; x64) AppleWebKit/537.36 (KHTML, like Gecko) Chrome/119.0.0.0 Safari/537.36" etag="iljyx1y2l5xFXW8h_3PS" version="22.1.4" type="device">
  <diagram name="Page-1" id="lOR0Fh_G2GfWhem5RLfa">
    <mxGraphModel dx="940" dy="653" grid="1" gridSize="10" guides="1" tooltips="1" connect="1" arrows="1" fold="1" page="1" pageScale="1" pageWidth="850" pageHeight="1100" math="0" shadow="0">
      <root>
        <mxCell id="0" />
        <mxCell id="1" parent="0" />
        <mxCell id="6Ls43wDfGoN7K0HVi4C6-1" value="" style="shape=cylinder3;whiteSpace=wrap;html=1;boundedLbl=1;backgroundOutline=1;size=15;fontSize=16;fillColor=#fff2cc;strokeColor=#d6b656;" vertex="1" parent="1">
          <mxGeometry x="660" y="120" width="110" height="200" as="geometry" />
        </mxCell>
        <mxCell id="6Ls43wDfGoN7K0HVi4C6-11" value="&lt;b&gt;Computer&lt;/b&gt;" style="whiteSpace=wrap;html=1;aspect=fixed;fontSize=16;fillColor=#f5f5f5;fontColor=#333333;strokeColor=#666666;" vertex="1" parent="1">
          <mxGeometry x="30" y="70" width="90" height="90" as="geometry" />
        </mxCell>
        <mxCell id="6Ls43wDfGoN7K0HVi4C6-12" value="&lt;b&gt;Mobile&lt;/b&gt;" style="rounded=1;whiteSpace=wrap;html=1;fontSize=16;rotation=90;fillColor=#f5f5f5;fontColor=#333333;strokeColor=#666666;" vertex="1" parent="1">
          <mxGeometry x="15" y="300" width="120" height="60" as="geometry" />
        </mxCell>
        <mxCell id="6Ls43wDfGoN7K0HVi4C6-13" value="APIs" style="shape=process;whiteSpace=wrap;html=1;backgroundOutline=1;fontSize=16;fillColor=#ffe6cc;strokeColor=#d79b00;" vertex="1" parent="1">
          <mxGeometry x="190" y="190" width="120" height="60" as="geometry" />
        </mxCell>
        <mxCell id="6Ls43wDfGoN7K0HVi4C6-14" value="" style="endArrow=classic;html=1;rounded=0;fontSize=12;startSize=8;endSize=8;edgeStyle=orthogonalEdgeStyle;entryX=0.25;entryY=0;entryDx=0;entryDy=0;exitX=1;exitY=0.75;exitDx=0;exitDy=0;" edge="1" parent="1" source="6Ls43wDfGoN7K0HVi4C6-11" target="6Ls43wDfGoN7K0HVi4C6-13">
          <mxGeometry width="50" height="50" relative="1" as="geometry">
            <mxPoint x="130" y="120" as="sourcePoint" />
            <mxPoint x="240" y="110" as="targetPoint" />
          </mxGeometry>
        </mxCell>
        <mxCell id="6Ls43wDfGoN7K0HVi4C6-15" value="" style="endArrow=classic;html=1;rounded=0;fontSize=12;startSize=8;endSize=8;exitX=0.25;exitY=0;exitDx=0;exitDy=0;entryX=0.25;entryY=1;entryDx=0;entryDy=0;edgeStyle=orthogonalEdgeStyle;" edge="1" parent="1" source="6Ls43wDfGoN7K0HVi4C6-12" target="6Ls43wDfGoN7K0HVi4C6-13">
          <mxGeometry width="50" height="50" relative="1" as="geometry">
            <mxPoint x="150" y="360" as="sourcePoint" />
            <mxPoint x="200" y="310" as="targetPoint" />
          </mxGeometry>
        </mxCell>
        <mxCell id="6Ls43wDfGoN7K0HVi4C6-16" value="" style="shape=flexArrow;endArrow=classic;html=1;rounded=0;fontSize=12;startSize=8;endSize=8;curved=1;exitX=1;exitY=0.5;exitDx=0;exitDy=0;entryX=0;entryY=0.5;entryDx=0;entryDy=0;fillColor=#dae8fc;strokeColor=#6c8ebf;" edge="1" parent="1">
          <mxGeometry width="50" height="50" relative="1" as="geometry">
            <mxPoint x="310" y="200" as="sourcePoint" />
            <mxPoint x="410" y="200" as="targetPoint" />
          </mxGeometry>
        </mxCell>
        <mxCell id="6Ls43wDfGoN7K0HVi4C6-17" value="" style="group;fillColor=#6a00ff;strokeColor=#3700CC;fontColor=#ffffff;fillStyle=solid;" vertex="1" connectable="0" parent="1">
          <mxGeometry x="410" y="90" width="120" height="260" as="geometry" />
        </mxCell>
        <mxCell id="6Ls43wDfGoN7K0HVi4C6-2" value="" style="rounded=0;whiteSpace=wrap;html=1;fontSize=16;" vertex="1" parent="6Ls43wDfGoN7K0HVi4C6-17">
          <mxGeometry width="120" height="260" as="geometry" />
        </mxCell>
        <mxCell id="6Ls43wDfGoN7K0HVi4C6-3" value="" style="endArrow=none;html=1;rounded=0;fontSize=12;startSize=8;endSize=8;curved=1;exitX=0;exitY=0.25;exitDx=0;exitDy=0;entryX=1;entryY=0.25;entryDx=0;entryDy=0;" edge="1" parent="6Ls43wDfGoN7K0HVi4C6-17" source="6Ls43wDfGoN7K0HVi4C6-2" target="6Ls43wDfGoN7K0HVi4C6-2">
          <mxGeometry width="50" height="50" relative="1" as="geometry">
            <mxPoint x="50" y="120" as="sourcePoint" />
            <mxPoint x="100" y="70" as="targetPoint" />
          </mxGeometry>
        </mxCell>
        <mxCell id="6Ls43wDfGoN7K0HVi4C6-4" value="" style="endArrow=none;html=1;rounded=0;fontSize=12;startSize=8;endSize=8;curved=1;exitX=0;exitY=0.5;exitDx=0;exitDy=0;entryX=1;entryY=0.5;entryDx=0;entryDy=0;" edge="1" parent="6Ls43wDfGoN7K0HVi4C6-17" source="6Ls43wDfGoN7K0HVi4C6-2" target="6Ls43wDfGoN7K0HVi4C6-2">
          <mxGeometry width="50" height="50" relative="1" as="geometry">
            <mxPoint y="140" as="sourcePoint" />
            <mxPoint x="120" y="140" as="targetPoint" />
          </mxGeometry>
        </mxCell>
        <mxCell id="6Ls43wDfGoN7K0HVi4C6-5" value="" style="endArrow=none;html=1;rounded=0;fontSize=12;startSize=8;endSize=8;curved=1;exitX=0;exitY=0.75;exitDx=0;exitDy=0;entryX=1;entryY=0.75;entryDx=0;entryDy=0;" edge="1" parent="6Ls43wDfGoN7K0HVi4C6-17" source="6Ls43wDfGoN7K0HVi4C6-2" target="6Ls43wDfGoN7K0HVi4C6-2">
          <mxGeometry width="50" height="50" relative="1" as="geometry">
            <mxPoint y="180" as="sourcePoint" />
            <mxPoint x="120" y="180" as="targetPoint" />
          </mxGeometry>
        </mxCell>
        <mxCell id="6Ls43wDfGoN7K0HVi4C6-7" value="" style="ellipse;whiteSpace=wrap;html=1;fontSize=16;fillColor=#e1d5e7;strokeColor=#9673a6;" vertex="1" parent="6Ls43wDfGoN7K0HVi4C6-17">
          <mxGeometry x="15" y="10" width="90" height="40" as="geometry" />
        </mxCell>
        <mxCell id="6Ls43wDfGoN7K0HVi4C6-8" value="" style="ellipse;whiteSpace=wrap;html=1;fontSize=16;fillColor=#e1d5e7;strokeColor=#9673a6;" vertex="1" parent="6Ls43wDfGoN7K0HVi4C6-17">
          <mxGeometry x="16" y="140" width="90" height="40" as="geometry" />
        </mxCell>
        <mxCell id="6Ls43wDfGoN7K0HVi4C6-9" value="" style="ellipse;whiteSpace=wrap;html=1;fontSize=16;fillColor=#e1d5e7;strokeColor=#9673a6;" vertex="1" parent="6Ls43wDfGoN7K0HVi4C6-17">
          <mxGeometry x="15" y="80" width="90" height="40" as="geometry" />
        </mxCell>
        <mxCell id="6Ls43wDfGoN7K0HVi4C6-10" value="" style="ellipse;whiteSpace=wrap;html=1;fontSize=16;fillColor=#e1d5e7;strokeColor=#9673a6;" vertex="1" parent="6Ls43wDfGoN7K0HVi4C6-17">
          <mxGeometry x="15" y="210" width="90" height="40" as="geometry" />
        </mxCell>
        <mxCell id="6Ls43wDfGoN7K0HVi4C6-18" value="" style="shape=flexArrow;endArrow=classic;html=1;rounded=0;fontSize=12;startSize=8;endSize=8;curved=1;entryX=0;entryY=0;entryDx=0;entryDy=57.5;entryPerimeter=0;fillColor=#dae8fc;strokeColor=#6c8ebf;" edge="1" parent="1">
          <mxGeometry width="50" height="50" relative="1" as="geometry">
            <mxPoint x="530" y="178" as="sourcePoint" />
            <mxPoint x="660" y="177.5" as="targetPoint" />
          </mxGeometry>
        </mxCell>
        <mxCell id="6Ls43wDfGoN7K0HVi4C6-19" value="" style="shape=flexArrow;endArrow=classic;html=1;rounded=0;fontSize=12;startSize=8;endSize=8;curved=1;exitX=0.009;exitY=0.665;exitDx=0;exitDy=0;entryX=1;entryY=0.625;entryDx=0;entryDy=0;entryPerimeter=0;exitPerimeter=0;fillColor=#dae8fc;strokeColor=#6c8ebf;" edge="1" parent="1" source="6Ls43wDfGoN7K0HVi4C6-1" target="6Ls43wDfGoN7K0HVi4C6-2">
          <mxGeometry width="50" height="50" relative="1" as="geometry">
            <mxPoint x="542" y="188" as="sourcePoint" />
            <mxPoint x="670" y="188" as="targetPoint" />
          </mxGeometry>
        </mxCell>
        <mxCell id="6Ls43wDfGoN7K0HVi4C6-20" value="&lt;b&gt;Request&lt;/b&gt;" style="text;html=1;align=center;verticalAlign=middle;resizable=0;points=[];autosize=1;strokeColor=none;fillColor=none;fontSize=16;" vertex="1" parent="1">
          <mxGeometry x="121" y="140" width="90" height="30" as="geometry" />
        </mxCell>
        <mxCell id="6Ls43wDfGoN7K0HVi4C6-21" value="&lt;b&gt;Request&lt;/b&gt;" style="text;html=1;align=center;verticalAlign=middle;resizable=0;points=[];autosize=1;strokeColor=none;fillColor=none;fontSize=16;" vertex="1" parent="1">
          <mxGeometry x="121" y="274" width="90" height="30" as="geometry" />
        </mxCell>
        <mxCell id="6Ls43wDfGoN7K0HVi4C6-22" value="&lt;font style=&quot;font-size: 16px;&quot;&gt;&lt;b&gt;Response&lt;/b&gt;&lt;/font&gt;" style="html=1;verticalAlign=bottom;endArrow=open;dashed=1;endSize=8;rounded=0;fontSize=12;exitX=0.75;exitY=1;exitDx=0;exitDy=0;entryX=0.75;entryY=0;entryDx=0;entryDy=0;edgeStyle=orthogonalEdgeStyle;" edge="1" parent="1" source="6Ls43wDfGoN7K0HVi4C6-13" target="6Ls43wDfGoN7K0HVi4C6-12">
          <mxGeometry x="0.1228" relative="1" as="geometry">
            <mxPoint x="280" y="440" as="sourcePoint" />
            <mxPoint x="200" y="440" as="targetPoint" />
            <mxPoint as="offset" />
          </mxGeometry>
        </mxCell>
        <mxCell id="6Ls43wDfGoN7K0HVi4C6-23" value="&lt;font style=&quot;font-size: 16px;&quot;&gt;&lt;b&gt;Response&lt;/b&gt;&lt;/font&gt;" style="html=1;verticalAlign=bottom;endArrow=open;dashed=1;endSize=8;rounded=0;fontSize=12;entryX=1;entryY=0.25;entryDx=0;entryDy=0;exitX=0.75;exitY=0;exitDx=0;exitDy=0;edgeStyle=orthogonalEdgeStyle;" edge="1" parent="1" source="6Ls43wDfGoN7K0HVi4C6-13" target="6Ls43wDfGoN7K0HVi4C6-11">
          <mxGeometry relative="1" as="geometry">
            <mxPoint x="280" y="100" as="sourcePoint" />
            <mxPoint x="200" y="100" as="targetPoint" />
          </mxGeometry>
        </mxCell>
        <mxCell id="6Ls43wDfGoN7K0HVi4C6-24" value="&lt;font size=&quot;1&quot;&gt;&lt;b&gt;&lt;i&gt;&lt;u style=&quot;font-size: 20px;&quot;&gt;System&lt;/u&gt;&lt;/i&gt;&lt;/b&gt;&lt;/font&gt;" style="rounded=1;whiteSpace=wrap;html=1;fontSize=16;fillColor=#a20025;fontColor=#ffffff;strokeColor=#6F0000;" vertex="1" parent="1">
          <mxGeometry x="20" y="420" width="115" height="30" as="geometry" />
        </mxCell>
        <mxCell id="6Ls43wDfGoN7K0HVi4C6-25" value="&lt;font size=&quot;1&quot;&gt;&lt;b&gt;&lt;i&gt;&lt;u style=&quot;font-size: 20px;&quot;&gt;Server&lt;/u&gt;&lt;/i&gt;&lt;/b&gt;&lt;/font&gt;" style="rounded=1;whiteSpace=wrap;html=1;fontSize=16;fillColor=#a20025;fontColor=#ffffff;strokeColor=#6F0000;" vertex="1" parent="1">
          <mxGeometry x="412.5" y="370" width="115" height="30" as="geometry" />
        </mxCell>
        <mxCell id="6Ls43wDfGoN7K0HVi4C6-26" value="&lt;font size=&quot;1&quot;&gt;&lt;b&gt;&lt;i&gt;&lt;u style=&quot;font-size: 20px;&quot;&gt;Database&lt;/u&gt;&lt;/i&gt;&lt;/b&gt;&lt;/font&gt;" style="rounded=1;whiteSpace=wrap;html=1;fontSize=16;fillColor=#a20025;fontColor=#ffffff;strokeColor=#6F0000;" vertex="1" parent="1">
          <mxGeometry x="660" y="340" width="115" height="30" as="geometry" />
        </mxCell>
        <mxCell id="6Ls43wDfGoN7K0HVi4C6-27" value="" style="shape=flexArrow;endArrow=classic;html=1;rounded=0;fontSize=12;startSize=8;endSize=8;curved=1;entryX=1;entryY=0.75;entryDx=0;entryDy=0;fillColor=#dae8fc;strokeColor=#6c8ebf;" edge="1" parent="1" target="6Ls43wDfGoN7K0HVi4C6-13">
          <mxGeometry width="50" height="50" relative="1" as="geometry">
            <mxPoint x="410" y="235" as="sourcePoint" />
            <mxPoint x="412.5" y="288.5" as="targetPoint" />
          </mxGeometry>
        </mxCell>
      </root>
    </mxGraphModel>
  </diagram>
</mxfile>
